<svg width="20" height="14" viewBox="0 0 20 14" fill="none" xmlns="http://www.w3.org/2000/svg">
<path fill-rule="evenodd" clip-rule="evenodd" d="M5.28796 9.65515C4.60356 8.86995 3.45741 7.1846 3.43916 5.023C2.62645 4.91015 1.91902 4.77035 1.39241 4.59945C1.13191 4.51495 0.855495 4.40405 0.624205 4.24895C0.43775 4.12385 0 3.78035 0 3.17165C0 2.563 0.43775 2.21945 0.624205 2.0944C0.855495 1.93925 1.13191 1.8284 1.39241 1.74385C1.92716 1.57035 2.64838 1.42885 3.47696 1.3151C3.58956 1.29965 3.70486 1.28465 3.82281 1.27C3.52231 1.6673 3.24141 2.05345 3.05001 2.39065C2.58221 2.4681 2.1826 2.5536 1.86379 2.64535C1.84751 2.65005 1.83145 2.65475 1.8156 2.6595C1.29204 2.8153 1 2.9888 1 3.17165C1 3.35455 1.29204 3.52805 1.8156 3.68385C1.83145 3.6886 1.84751 3.6933 1.86379 3.69795C2.28983 3.8206 2.86017 3.932 3.54466 4.02805C3.69781 3.32115 4.03141 2.5301 4.63426 1.83405C5.54276 0.78515 7.02126 0 9.27416 0C10.4079 0 11.2623 0.1443 11.9589 0.4147C12.6612 0.6873 13.1713 1.0758 13.6284 1.51465C13.6632 1.5481 13.699 1.5819 13.7354 1.61625C14.0316 1.8958 14.3664 2.21185 14.5351 2.6773C14.6876 3.09785 14.8802 3.61515 15.0892 4.1699C16.3218 4.04945 17.3217 3.8871 17.9786 3.69795C17.9949 3.6933 18.011 3.6886 18.0268 3.68385C18.5504 3.52805 18.8424 3.35455 18.8424 3.17165C18.8424 2.9888 18.5504 2.8153 18.0268 2.6595C18.011 2.65475 17.9949 2.65005 17.9786 2.64535C17.6936 2.5633 17.3441 2.4863 16.939 2.41555V3.75L14.939 2L16.939 0V1.4013C17.5275 1.49815 18.0428 1.61175 18.45 1.74385C18.7105 1.8284 18.9869 1.93925 19.2182 2.0944C19.4047 2.21945 19.8424 2.563 19.8424 3.17165C19.8424 3.78035 19.4047 4.12385 19.2182 4.24895C18.9869 4.40405 18.7105 4.51495 18.45 4.59945C17.9153 4.773 17.194 4.9145 16.3654 5.0282C16.0794 5.0675 15.7756 5.10405 15.4561 5.13775C15.7738 5.97215 16.098 6.8143 16.3575 7.48575C16.6963 8.3622 16.1571 9.2982 15.2899 9.4924V10.5093C15.2899 11.3377 14.6183 12.0093 13.7899 12.0093H12.2972V14H11.2972V11.0093H13.7899C14.066 11.0093 14.2899 10.7854 14.2899 10.5093V8.5289H14.9567C15.3092 8.5289 15.5518 8.17495 15.4248 7.84625C15.1386 7.1057 14.7722 6.15375 14.4221 5.23225C13.0864 5.3371 11.5499 5.39615 9.92121 5.39615C7.87821 5.39615 5.98046 5.3033 4.44186 5.14355C4.50501 7.0321 5.58706 8.5133 6.15406 9.12295L6.28796 9.26685V14H5.28796V9.65515ZM5.39016 2.48875C4.93451 3.01485 4.67236 3.6123 4.54271 4.1487C6.03816 4.304 7.90126 4.39615 9.92121 4.39615C11.4124 4.39615 12.8182 4.34595 14.0536 4.25715C13.8819 3.79955 13.7243 3.37475 13.595 3.0181C13.5112 2.7869 13.3567 2.639 13.0237 2.32025L12.9357 2.23595C12.5407 1.8566 12.1395 1.55745 11.5971 1.34695C11.0491 1.13425 10.3256 1 9.27416 1C7.27546 1 6.08636 1.6849 5.39016 2.48875Z" fill="#008C00"/>
</svg>
