<svg width="18" height="18" viewBox="0 0 18 18" fill="none" xmlns="http://www.w3.org/2000/svg">
<path fill-rule="evenodd" clip-rule="evenodd" d="M8.5 6.50883e-05C8.5 6.50883e-05 8.5 0 9 0H9.08805C9.12665 0 9.16165 0 9.1934 0C9.5 5e-06 9.5 6.50883e-05 9.5 6.50883e-05V7.25C9.5 7.94885 9.78205 8.22105 10.0019 8.34935C10.0265 8.36365 10.0512 8.37665 10.0758 8.3885C10.0753 8.3284 10.0746 8.2658 10.0739 8.20095V8.20015C10.055 6.4358 10.0182 2.99985 12.7376 2.99985C16.4629 2.99985 19.1239 16.0031 17.5273 17.33C15.9307 18.6568 12.7376 17.8607 11.1411 16.2684C9.8521 14.983 9.9636 11.9792 10.0436 9.82285L10.0437 9.82215C10.0485 9.69095 10.0533 9.5629 10.0576 9.43855C9.895 9.3981 9.69795 9.32975 9.4981 9.21315C9.3199 9.1092 9.14875 8.9721 9 8.79595C8.8513 8.9721 8.68015 9.1092 8.50195 9.21315C8.30205 9.32975 8.10505 9.3981 7.9424 9.43855C7.9467 9.56305 7.95145 9.6913 7.95635 9.82265C8.0364 11.979 8.14795 14.9831 6.85895 16.2686C5.26235 17.8609 2.06925 18.6569 0.472679 17.3301C-1.12389 16.0032 1.53706 3 5.26235 3C7.9818 3 7.945 6.43585 7.9261 8.20015C7.926 8.2083 7.9259 8.2164 7.9258 8.22445C7.9252 8.28095 7.92465 8.3357 7.9242 8.3885C7.94885 8.3767 7.97355 8.3637 7.9981 8.34935C8.218 8.22105 8.5 7.94885 8.5 7.25V6.50883e-05ZM12.7376 3.99985C12.2606 3.99985 11.9921 4.1501 11.8043 4.34345C11.5876 4.56655 11.4066 4.92535 11.2795 5.4323C11.057 6.31975 11.0665 7.34095 11.0741 8.16465C11.0754 8.3071 11.0767 8.4437 11.0767 8.57265C11.0767 8.95265 11.0598 9.40765 11.0422 9.88105C11.0353 10.0675 11.0283 10.2566 11.0221 10.4452C10.9998 11.1328 10.987 11.8527 11.0202 12.5491C11.0536 13.2493 11.1321 13.8918 11.2786 14.4298C11.4269 14.9741 11.6254 15.3392 11.8472 15.5604C12.4863 16.1977 13.4954 16.7125 14.5246 16.9121C15.5421 17.1094 16.3612 16.9634 16.8409 16.5984C16.8434 16.5928 16.8461 16.5863 16.8492 16.5787C16.8788 16.5047 16.9147 16.3777 16.9439 16.1842C17.0023 15.7967 17.0175 15.2561 16.9781 14.5902C16.8997 13.2653 16.6143 11.5844 16.1634 9.9303C15.7108 8.2698 15.1086 6.6999 14.426 5.56915C14.0844 5.0031 13.7475 4.5893 13.4351 4.32675C13.1259 4.06685 12.8967 3.99985 12.7376 3.99985ZM5.26235 4C5.7394 4 6.0079 4.15025 6.1957 4.3436C6.4124 4.5667 6.5934 4.9255 6.7205 5.43245C6.94295 6.31995 6.9335 7.3411 6.9259 8.1648C6.92455 8.3073 6.9233 8.44385 6.9233 8.5728C6.9233 8.9528 6.9402 9.4078 6.95775 9.8812C6.9647 10.0675 6.9717 10.2569 6.97785 10.4454C7.00025 11.133 7.01295 11.8529 6.9798 12.5492C6.94645 13.2494 6.86795 13.8919 6.72135 14.43C6.5731 14.9743 6.3746 15.3394 6.1528 15.5606C5.51375 16.1979 4.50465 16.7127 3.47545 16.9123C2.45795 17.1096 1.63884 16.9636 1.15911 16.5986C1.15663 16.593 1.15385 16.5865 1.15081 16.5788C1.1212 16.5049 1.0853 16.3778 1.05612 16.1843C0.997693 15.7968 0.982499 15.2562 1.0219 14.5903C1.10028 13.2654 1.38573 11.5846 1.83662 9.93045C2.28925 8.26995 2.89135 6.70005 3.57395 5.5693C3.91565 5.00325 4.25245 4.58945 4.5649 4.3269C4.8741 4.067 5.10325 4 5.26235 4Z" fill="#008C00"/>
</svg>
