<svg width="408" height="88" viewBox="0 0 408 88" fill="none" xmlns="http://www.w3.org/2000/svg">
<path d="M12.4676 38.5788H45.1112L30.2732 72.7062L14.37 56.803C12.6372 55.0702 11.3865 52.9152 10.7418 50.5509C9.93594 47.5963 10.1153 44.4595 11.2527 41.616L12.4676 38.5788Z" fill="#CBF6BE"/>
<g filter="url(#filter0_f_16_434)">
<path d="M13.2095 37.095H45.8532L43.8102 41.5464H11.375L13.2095 37.095Z" fill="black" fill-opacity="0.2"/>
</g>
<path d="M24.958 9.05654C27.2805 3.56693 32.6626 0 38.6233 0H92.593L77.755 38.5788H12.4678L24.958 9.05654Z" fill="#08B808"/>
<path d="M119.302 48.9653H86.6583L101.496 14.8379L117.4 30.7411C119.132 32.474 120.383 34.629 121.028 36.9932C121.834 39.9479 121.654 43.0847 120.517 45.9282L119.302 48.9653Z" fill="#CBF6BE"/>
<g filter="url(#filter1_f_16_434)">
<path d="M118.56 50.4492H85.9161L87.9591 45.9978H120.394L118.56 50.4492Z" fill="black" fill-opacity="0.2"/>
</g>
<path d="M106.811 78.4876C104.489 83.9773 99.1067 87.5442 93.146 87.5442H39.1763L54.0143 48.9654H119.302L106.811 78.4876Z" fill="#08B808"/>
<path d="M187.05 36.9197H180.987C180.754 35.6244 180.32 34.4845 179.686 33.5C179.051 32.5155 178.274 31.6801 177.354 30.9935C176.434 30.307 175.404 29.7889 174.265 29.4391C173.138 29.0894 171.939 28.9145 170.67 28.9145C168.377 28.9145 166.324 29.4909 164.511 30.6438C162.71 31.7966 161.285 33.4871 160.236 35.715C159.2 37.943 158.682 40.6632 158.682 43.8757C158.682 47.114 159.2 49.8472 160.236 52.0752C161.285 54.3032 162.717 55.9871 164.53 57.127C166.344 58.2669 168.384 58.8368 170.651 58.8368C171.907 58.8368 173.099 58.6685 174.226 58.3317C175.366 57.9819 176.395 57.4703 177.315 56.7967C178.235 56.1231 179.012 55.3006 179.647 54.3291C180.294 53.3446 180.741 52.2177 180.987 50.9482L187.05 50.9677C186.726 52.9236 186.097 54.7241 185.165 56.3692C184.245 58.0014 183.06 59.4133 181.609 60.605C180.171 61.7837 178.526 62.697 176.674 63.3446C174.822 63.9923 172.801 64.3161 170.612 64.3161C167.166 64.3161 164.096 63.5001 161.402 61.8679C158.708 60.2229 156.583 57.8718 155.029 54.8148C153.487 51.7578 152.717 48.1114 152.717 43.8757C152.717 39.627 153.494 35.9806 155.048 32.9365C156.603 29.8795 158.727 27.535 161.421 25.9028C164.116 24.2578 167.179 23.4352 170.612 23.4352C172.723 23.4352 174.692 23.7396 176.518 24.3484C178.358 24.9443 180.009 25.8251 181.473 26.9909C182.937 28.1438 184.148 29.5557 185.107 31.2267C186.065 32.8847 186.713 34.7824 187.05 36.9197ZM203 64.4327C201.109 64.4327 199.399 64.083 197.87 63.3835C196.342 62.6711 195.131 61.6413 194.237 60.2941C193.356 58.947 192.916 57.2954 192.916 55.3394C192.916 53.6555 193.24 52.2695 193.887 51.1814C194.535 50.0933 195.409 49.2319 196.51 48.5972C197.611 47.9625 198.842 47.4832 200.202 47.1594C201.562 46.8355 202.948 46.5894 204.36 46.421C206.148 46.2138 207.598 46.0454 208.712 45.9158C209.826 45.7733 210.636 45.5467 211.141 45.2358C211.646 44.9249 211.899 44.4197 211.899 43.7202V43.5842C211.899 41.8873 211.42 40.5726 210.461 39.6399C209.515 38.7073 208.104 38.2409 206.225 38.2409C204.269 38.2409 202.728 38.6749 201.601 39.5428C200.487 40.3977 199.716 41.3498 199.289 42.399L193.829 41.1555C194.477 39.342 195.422 37.8783 196.666 36.7643C197.922 35.6373 199.366 34.8212 200.999 34.3161C202.631 33.7979 204.347 33.5389 206.148 33.5389C207.339 33.5389 208.602 33.6814 209.936 33.9663C211.284 34.2383 212.54 34.7435 213.706 35.4819C214.885 36.2202 215.85 37.2759 216.601 38.649C217.352 40.0091 217.728 41.7772 217.728 43.9534V63.7721H212.054V59.6918H211.821C211.446 60.4431 210.882 61.1814 210.131 61.9068C209.379 62.6322 208.414 63.2345 207.236 63.7138C206.057 64.1931 204.645 64.4327 203 64.4327ZM204.263 59.7695C205.869 59.7695 207.242 59.4521 208.382 58.8174C209.535 58.1827 210.409 57.3537 211.005 56.3304C211.614 55.2941 211.918 54.1866 211.918 53.0078V49.1607C211.711 49.3679 211.31 49.5622 210.714 49.7436C210.131 49.912 209.464 50.0609 208.712 50.1905C207.961 50.307 207.229 50.4171 206.517 50.5208C205.804 50.6114 205.208 50.6892 204.729 50.7539C203.602 50.8964 202.572 51.1361 201.64 51.4728C200.72 51.8096 199.982 52.2954 199.425 52.9301C198.881 53.5519 198.609 54.3809 198.609 55.4172C198.609 56.855 199.14 57.9431 200.202 58.6814C201.264 59.4068 202.618 59.7695 204.263 59.7695ZM226.013 63.7721V33.9275H231.628V38.6684H231.939C232.483 37.0622 233.442 35.7992 234.815 34.8795C236.201 33.9469 237.768 33.4806 239.517 33.4806C239.88 33.4806 240.307 33.4935 240.799 33.5194C241.305 33.5453 241.7 33.5777 241.985 33.6166V39.1736C241.752 39.1088 241.337 39.0376 240.741 38.9599C240.145 38.8692 239.549 38.8238 238.954 38.8238C237.581 38.8238 236.356 39.1153 235.281 39.6982C234.219 40.2682 233.377 41.0648 232.755 42.0881C232.134 43.0985 231.823 44.2513 231.823 45.5467V63.7721H226.013ZM259.353 64.3744C256.413 64.3744 253.881 63.7462 251.756 62.4897C249.645 61.2203 248.013 59.4392 246.86 57.1464C245.72 54.8407 245.15 52.1399 245.15 49.0441C245.15 45.9871 245.72 43.2928 246.86 40.9612C248.013 38.6295 249.619 36.8096 251.679 35.5013C253.751 34.193 256.173 33.5389 258.945 33.5389C260.629 33.5389 262.261 33.8174 263.842 34.3744C265.422 34.9314 266.84 35.8057 268.097 36.9974C269.353 38.1891 270.344 39.7371 271.07 41.6412C271.795 43.5324 272.158 45.8316 272.158 48.5389V50.5985H248.434V46.2461H266.465C266.465 44.7176 266.154 43.364 265.532 42.1853C264.91 40.9935 264.036 40.0544 262.909 39.3679C261.795 38.6814 260.487 38.3381 258.984 38.3381C257.352 38.3381 255.927 38.7397 254.71 39.5428C253.505 40.3329 252.572 41.3692 251.912 42.6516C251.264 43.921 250.94 45.3005 250.94 46.7902V50.1905C250.94 52.1853 251.29 53.8822 251.989 55.2811C252.702 56.6801 253.693 57.7488 254.962 58.4871C256.232 59.2125 257.715 59.5752 259.412 59.5752C260.513 59.5752 261.517 59.4198 262.423 59.1089C263.33 58.785 264.114 58.3058 264.774 57.671C265.435 57.0363 265.94 56.2526 266.29 55.32L271.789 56.3109C271.348 57.9301 270.558 59.3485 269.418 60.5661C268.291 61.7708 266.873 62.7099 265.163 63.3835C263.466 64.0441 261.53 64.3744 259.353 64.3744Z" fill="#008C00"/>
<path d="M301.321 34.4326C301.113 32.5933 300.259 31.1684 298.756 30.158C297.253 29.1347 295.362 28.623 293.082 28.623C291.45 28.623 290.038 28.8821 288.847 29.4003C287.655 29.9054 286.729 30.6049 286.068 31.4987C285.42 32.3795 285.097 33.3834 285.097 34.5104C285.097 35.456 285.317 36.272 285.757 36.9586C286.211 37.6451 286.8 38.2215 287.525 38.6878C288.264 39.1412 289.054 39.5233 289.896 39.8342C290.738 40.1321 291.547 40.3783 292.325 40.5726L296.211 41.5829C297.48 41.8938 298.782 42.3148 300.116 42.8459C301.45 43.377 302.687 44.0765 303.827 44.9443C304.967 45.8122 305.887 46.8873 306.586 48.1697C307.299 49.4521 307.655 50.9871 307.655 52.7747C307.655 55.0286 307.072 57.0299 305.906 58.7786C304.753 60.5273 303.076 61.9068 300.874 62.9172C298.685 63.9275 296.036 64.4327 292.927 64.4327C289.948 64.4327 287.37 63.9599 285.194 63.0143C283.018 62.0687 281.314 60.728 280.084 58.9923C278.853 57.2436 278.173 55.171 278.043 52.7747H284.067C284.183 54.2125 284.65 55.4107 285.466 56.3692C286.295 57.3148 287.35 58.0208 288.633 58.4871C289.928 58.9405 291.347 59.1672 292.888 59.1672C294.585 59.1672 296.094 58.9016 297.415 58.3705C298.749 57.8265 299.799 57.0752 300.563 56.1166C301.327 55.1451 301.709 54.0117 301.709 52.7164C301.709 51.5376 301.373 50.5726 300.699 49.8213C300.038 49.07 299.138 48.4482 297.998 47.956C296.871 47.4638 295.595 47.0298 294.17 46.6542L289.468 45.3718C286.282 44.5039 283.756 43.228 281.891 41.5441C280.038 39.8601 279.112 37.6321 279.112 34.8601C279.112 32.5674 279.734 30.5661 280.977 28.8562C282.221 27.1464 283.905 25.8186 286.029 24.873C288.154 23.9145 290.55 23.4352 293.218 23.4352C295.913 23.4352 298.29 23.908 300.349 24.8536C302.422 25.7992 304.054 27.101 305.246 28.7591C306.437 30.4041 307.059 32.2953 307.111 34.4326H301.321ZM318.583 74.9638C317.715 74.9638 316.925 74.8926 316.212 74.7501C315.5 74.6206 314.969 74.4781 314.619 74.3226L316.018 69.5623C317.08 69.8472 318.026 69.9703 318.855 69.9314C319.684 69.8926 320.415 69.5817 321.05 68.9988C321.698 68.4159 322.268 67.4638 322.76 66.1426L323.479 64.1607L312.559 33.9275H318.777L326.335 57.0881H326.646L334.204 33.9275H340.441L328.142 67.7553C327.572 69.3097 326.847 70.6244 325.966 71.6996C325.085 72.7877 324.036 73.6037 322.818 74.1478C321.601 74.6918 320.189 74.9638 318.583 74.9638ZM352.258 46.0518V63.7721H346.448V33.9275H352.025V38.785H352.394C353.081 37.2047 354.156 35.9352 355.619 34.9767C357.096 34.0181 358.955 33.5389 361.196 33.5389C363.23 33.5389 365.011 33.9663 366.539 34.8213C368.068 35.6632 369.253 36.9197 370.095 38.5907C370.937 40.2617 371.358 42.3277 371.358 44.7889V63.7721H365.548V45.4884C365.548 43.3252 364.985 41.6347 363.858 40.4171C362.731 39.1865 361.183 38.5713 359.214 38.5713C357.867 38.5713 356.669 38.8627 355.619 39.4456C354.583 40.0285 353.761 40.8834 353.152 42.0104C352.556 43.1244 352.258 44.4715 352.258 46.0518ZM392.268 64.3744C389.379 64.3744 386.892 63.7203 384.807 62.412C382.734 61.0907 381.141 59.2708 380.027 56.9521C378.913 54.6335 378.356 51.978 378.356 48.9858C378.356 45.9547 378.926 43.2798 380.066 40.9612C381.206 38.6295 382.812 36.8096 384.884 35.5013C386.957 34.193 389.399 33.5389 392.209 33.5389C394.476 33.5389 396.497 33.9598 398.272 34.8018C400.046 35.6308 401.478 36.7966 402.566 38.2992C403.667 39.8018 404.321 41.557 404.528 43.5648H398.874C398.563 42.1658 397.851 40.9612 396.737 39.9508C395.636 38.9404 394.159 38.4352 392.307 38.4352C390.687 38.4352 389.269 38.8627 388.051 39.7176C386.847 40.5596 385.908 41.7643 385.234 43.3316C384.56 44.886 384.224 46.7254 384.224 48.8498C384.224 51.026 384.554 52.9042 385.215 54.4845C385.875 56.0648 386.808 57.2889 388.013 58.1568C389.23 59.0247 390.662 59.4586 392.307 59.4586C393.408 59.4586 394.405 59.2578 395.299 58.8563C396.206 58.4418 396.963 57.8524 397.572 57.0881C398.194 56.3239 398.628 55.4042 398.874 54.3291H404.528C404.321 56.2591 403.693 57.9819 402.643 59.4975C401.594 61.013 400.189 62.2047 398.427 63.0726C396.678 63.9405 394.625 64.3744 392.268 64.3744Z" fill="#10141A"/>
<defs>
<filter id="filter0_f_16_434" x="0.988395" y="26.7084" width="55.2512" height="25.2246" filterUnits="userSpaceOnUse" color-interpolation-filters="sRGB">
<feFlood flood-opacity="0" result="BackgroundImageFix"/>
<feBlend mode="normal" in="SourceGraphic" in2="BackgroundImageFix" result="shape"/>
<feGaussianBlur stdDeviation="5.1933" result="effect1_foregroundBlur_16_434"/>
</filter>
<filter id="filter1_f_16_434" x="75.5294" y="35.6112" width="55.2515" height="25.2246" filterUnits="userSpaceOnUse" color-interpolation-filters="sRGB">
<feFlood flood-opacity="0" result="BackgroundImageFix"/>
<feBlend mode="normal" in="SourceGraphic" in2="BackgroundImageFix" result="shape"/>
<feGaussianBlur stdDeviation="5.1933" result="effect1_foregroundBlur_16_434"/>
</filter>
</defs>
</svg>
